<?xml version="1.0" encoding="utf-8"?>
<!-- Generator: Adobe Illustrator 24.2.1, SVG Export Plug-In . SVG Version: 6.00 Build 0)  -->
<svg version="1.1" id="Layer_1" xmlns="http://www.w3.org/2000/svg" xmlns:xlink="http://www.w3.org/1999/xlink" x="0px" y="0px"
	 viewBox="0 0 90 70" style="enable-background:new 0 0 90 70;" xml:space="preserve">
<style type="text/css">
	.st0{fill:#231F20;}
	.st1{fill:#7CC644;}
</style>
<path class="st0" d="M27.41,57.78c-3.93,0-7.13-3.2-7.13-7.13s3.2-7.13,7.13-7.13c3.93,0,7.13,3.2,7.13,7.13
	S31.34,57.78,27.41,57.78z M27.41,45.52c-2.83,0-5.13,2.3-5.13,5.13s2.3,5.13,5.13,5.13s5.13-2.3,5.13-5.13S30.24,45.52,27.41,45.52
	z"/>
<path class="st0" d="M37.56,67.5c-0.12-4.43-3.64-5.6-4.88-5.88l-5.26,4.66l-5.26-4.66c-1.24,0.29-4.77,1.48-4.89,5.88l-2-0.05
	c0.15-5.57,4.68-7.6,7.06-7.89l0.45-0.06l4.63,4.11l4.63-4.11l0.45,0.06c2.38,0.29,6.92,2.32,7.06,7.89L37.56,67.5z"/>
<path class="st0" d="M60.54,57.78c-3.93,0-7.13-3.2-7.13-7.13s3.2-7.13,7.13-7.13s7.13,3.2,7.13,7.13S64.47,57.78,60.54,57.78z
	 M60.54,45.52c-2.83,0-5.13,2.3-5.13,5.13s2.3,5.13,5.13,5.13s5.13-2.3,5.13-5.13S63.37,45.52,60.54,45.52z"/>
<path class="st0" d="M50.4,67.5l-2-0.05c0.15-5.57,4.68-7.6,7.06-7.89l0.45-0.06l4.63,4.11l4.63-4.11l0.45,0.06
	c2.38,0.29,6.92,2.32,7.06,7.89l-2,0.05c-0.12-4.39-3.64-5.59-4.89-5.88l-5.26,4.66l-5.26-4.66C54.04,61.91,50.51,63.11,50.4,67.5z"
	/>
<path class="st1" d="M67.52,31.56v7.93l-8.58-7.93c0,0-23.74,0-23.74,0c-1.9,0-3.45-1.55-3.45-3.45l0-21.74
	c0-1.9,1.55-3.45,3.45-3.45l36.31,0c1.9,0,3.45,1.55,3.45,3.45l0,21.74c0,1.9-1.55,3.45-3.45,3.45L67.52,31.56L67.52,31.56z"/>
<path class="st0" d="M37.76,49.94v-9.21H20.4c-2.45,0-4.45-2-4.45-4.45V17.41c0-2.45,2-4.45,4.45-4.45h11.36v2H20.4
	c-1.35,0-2.45,1.1-2.45,2.45v18.87c0,1.35,1.1,2.45,2.45,2.45h19.36v6.64l7.18-6.64h4.59c1.35,0,2.45-1.1,2.45-2.45v-4.72h2v4.72
	c0,2.45-2,4.45-4.45,4.45h-3.81L37.76,49.94z"/>
</svg>
