<?xml version="1.0" encoding="utf-8"?>
<!-- Generator: Adobe Illustrator 24.2.1, SVG Export Plug-In . SVG Version: 6.00 Build 0)  -->
<svg version="1.1" id="Layer_1" xmlns="http://www.w3.org/2000/svg" xmlns:xlink="http://www.w3.org/1999/xlink" x="0px" y="0px"
	 viewBox="0 0 90 70" style="enable-background:new 0 0 90 70;" xml:space="preserve">
<style type="text/css">
	.st0{fill:#7CC644;}
	.st1{fill:#231F20;}
</style>
<g id="XMLID_2_">
	<g>
		<path class="st0" d="M63.53,10.28c-0.97,0.88-1.7,2.4-1.7,2.4s-2.16,2.82-2.21-1.46c-0.02-1.62-0.2-2.8-0.43-3.64
			C60.72,8.36,62.17,9.26,63.53,10.28z"/>
		<path class="st0" d="M59.01,43.4c1.5,0.71,1.5,1.65,0.42,2.87c-1.08,1.22-0.84,2.21-0.84,2.21c-0.33,3.8-2.49,3.85-2.49,3.85
			s-0.85-0.1-1.36,2.02c-0.52,2.11-2.87,5.26-2.87,5.26s-1.13,1.27-1.83,3.05c-0.42,1.05,0.06,2.14,0.52,2.86
			c-1.41,0.25-2.86,0.41-4.33,0.46c-0.47-0.94-0.93-2.64-0.47-5.38c0.8-4.8-0.7-8.98-0.83-10.01c-0.12-1.03-1.33-1.83-1.33-1.83
			c-5.96-4.98-2.44-10.43-2.44-10.43c-1.48-0.58-2.06-1.05-2.81-2.03l2.66-0.46c0.35,0.33,0.71,0.51,0.71,0.51
			c4.79-2.72,8.69,1.32,11,3.48C55.02,41.99,57.51,42.7,59.01,43.4z"/>
		<path class="st0" d="M22.78,13.73c1.9-1.98,4.05-3.7,6.41-5.13c1.26,0.22,2.78,0.56,4.08,1.06c2.86,1.09,5.82,0.95,6.76-0.97
			c0.78-1.6,3.88-2.88,8.77-4.28c2.46,0.29,4.84,0.87,7.08,1.72c-1.03,2.18-3.25,3.14-4.6,3.62c-0.11,0.04-0.21,0.08-0.3,0.11
			c-1.51,0.52-4.37,0.8-6.63,2.25c-2.25,1.46-0.75,2.87,0.76,4.47c1.52,1.59,2.53-0.47,2.53-0.47s0.42-1.32,1.74-3.15
			c0.56-0.78,1.28-1.24,2.03-1.27c1-0.04,2.05,0.72,2.81,2.59c1.31,3.24-1.27,5.16-2.68,5.3s-3.52,1.32-4.27,2.63
			c-0.76,1.32-1.65,2.02-2.34,2.87s-1.52,1.08-1.52,2.91c0,1.84-0.47,1.46-1.92-0.04c-1.46-1.51-3.01-0.52-4.51,0.32
			c-1.51,0.85-0.99,1.46-0.89,2.96c0.09,1.51,0.84,1.41,2.63,0.29c1.78-1.13,1.73,1.41,1.59,2.72c-0.07,0.69,0.31,1.23,0.7,1.6
			l-2.66,0.46c-0.11-0.14-0.22-0.3-0.34-0.46c-0.94-1.32-2.16-1.13-2.72-1.16c-0.57-0.03-1.37-0.44-1.37-0.44
			c-4.69-0.94-5.3-6.15-5.47-7.23c-0.16-1.08-0.68-1.51-0.68-1.51s-1.5-0.94-1.6-2.06c-0.09-1.13,0.47-1.98,1.69-3.57
			c1.23-1.6,0.19-2.63,0-4.8c-0.18-2.16-1.97-1.69-3.1-1.69C24.34,13.38,23.57,13.54,22.78,13.73z"/>
	</g>
	<g>
	</g>
</g>
<path class="st1" d="M45.11,67c-17.59,0-31.9-14.31-31.9-31.9c0-17.59,14.31-31.9,31.9-31.9c17.59,0,31.9,14.31,31.9,31.9
	C77.02,52.69,62.71,67,45.11,67z M45.11,5.19c-16.49,0-29.9,13.41-29.9,29.9c0,16.49,13.41,29.9,29.9,29.9
	c16.49,0,29.9-13.42,29.9-29.9C75.02,18.61,61.6,5.19,45.11,5.19z"/>
</svg>
