<?xml version="1.0" encoding="utf-8"?>
<!-- Generator: Adobe Illustrator 24.2.1, SVG Export Plug-In . SVG Version: 6.00 Build 0)  -->
<svg version="1.1" id="Layer_1" xmlns="http://www.w3.org/2000/svg" xmlns:xlink="http://www.w3.org/1999/xlink" x="0px" y="0px"
	 viewBox="0 0 330 330" style="enable-background:new 0 0 330 330;" xml:space="preserve">
<style type="text/css">
	.st0{fill:#7CC644;}
</style>
<g>
	<path class="st0" d="M47.94,56.11l8.35,8.6l11.9-11.56l-8.35-8.6l3.49-3.39l19.79,20.38l-3.49,3.39l-8.62-8.87l-11.9,11.56
		l8.62,8.87l-3.49,3.39L44.45,59.49L47.94,56.11z"/>
	<path class="st0" d="M106.37,30.94c4.17,7.35,2.48,15.7-5.6,20.29S84.61,53,80.44,45.65c-4.17-7.35-2.45-15.72,5.64-20.31
		S102.23,23.64,106.37,30.94z M84.71,43.23c3.09,5.45,8.8,7.56,14.1,4.55c5.3-3.01,6.42-8.99,3.33-14.44
		c-3.11-5.49-8.8-7.56-14.1-4.55C82.74,31.8,81.6,37.74,84.71,43.23z"/>
	<path class="st0" d="M114.11,12.52l12.01,20.53l0.08-0.02l2.99-23.81l4.42-0.95l12.6,20.45l0.08-0.02l2.46-23.65l4.88-1.05
		l-3.85,30.14l-4.54,0.98l-12.57-20.11l-0.08,0.02l-3.1,23.48l-4.59,0.99l-15.83-25.91L114.11,12.52z"/>
	<path class="st0" d="M182.26,6.12l-2.6,28.29l-4.84-0.44l2.6-28.29L182.26,6.12z"/>
	<path class="st0" d="M218.86,13.88l-1.02,3.92l-10.98-2.87l-6.15,23.56l-4.7-1.23l6.15-23.56l-10.98-2.87l1.02-3.92L218.86,13.88z"
		/>
	<path class="st0" d="M243.86,24.87l-7.17,22.69l0.07,0.05l19.66-13.76l3.67,2.64l-6.71,23.07l0.07,0.05l19.19-14.05l4.05,2.91
		l-24.94,17.37l-3.77-2.71l6.47-22.82l-0.07-0.05l-19.5,13.46l-3.81-2.74l8.59-29.12L243.86,24.87z"/>
	<path class="st0" d="M290.18,89.15c-6.74,5.09-15.24,4.51-20.85-2.9c-5.6-7.42-3.86-15.79,2.88-20.88
		c6.74-5.09,15.27-4.48,20.87,2.94C298.68,75.72,296.88,84.09,290.18,89.15z M275.16,69.28c-5,3.78-6.35,9.71-2.67,14.58
		c3.68,4.87,9.75,5.19,14.75,1.42c5.04-3.8,6.35-9.71,2.67-14.58C286.24,65.83,280.2,65.47,275.16,69.28z"/>
	<path class="st0" d="M283.25,107.23l-1.88-4.44l26.17-11.05l5.78,13.67c2.81,6.64,1.24,11.05-3.75,13.16
		c-4.24,1.79-8,0.23-10.68-3.68l-7.11,12.54l-2.16-5.11l6.95-12.05l-3.1-7.35L283.25,107.23z M296.92,101.46l3.42,8.09
		c1.76,4.16,4.15,5.89,7.26,4.57c2.91-1.23,3.69-3.64,1.9-7.89l-3.62-8.56L296.92,101.46z"/>
	<path class="st0" d="M306.95,139.48l-5.68-4.03l-7.78,1.29l-0.79-4.8l28.02-4.63l0.79,4.8l-14.9,2.46l17.37,12.52l0.98,5.93
		l-14.43-10.67c-3.52,4.04-13.55,15.6-13.55,15.6l-0.97-5.85C296.02,152.1,303.97,142.92,306.95,139.48z"/>
	<path class="st0" d="M315.49,186.68l-0.32-4.72c2.63-0.36,5.56-2.24,5.89-7.81c0.26-4.43-1.37-7.22-3.8-7.36
		c-2.73-0.16-3.4,1.89-4.95,8.55c-1.89,8.22-3.99,11.26-8.93,10.97c-5.54-0.33-8.3-5.66-7.87-12.94
		c0.54-9.11,4.68-12.67,10.07-12.91l0.32,4.76c-3.86,0.33-6.1,2.8-6.44,8.47c-0.26,4.39,1.1,7.5,3.86,7.66
		c2.85,0.17,3.65-1.79,5.25-8.62c1.79-7.97,3.74-11.23,8.55-10.95c5.07,0.3,8.31,5.44,7.88,12.73
		C324.5,183.06,320.18,186.18,315.49,186.68z"/>
	<path class="st0" d="M279.27,276.76l-8.12-8.82l-12.21,11.24l8.12,8.82l-3.58,3.29l-19.24-20.91l3.58-3.29l8.38,9.1l12.21-11.24
		l-8.38-9.1l3.58-3.29l19.24,20.91L279.27,276.76z"/>
	<path class="st0" d="M220.17,300.35c-3.97-7.46-2.06-15.77,6.15-20.14c8.21-4.37,16.21-1.33,20.17,6.13
		c3.97,7.46,2.02,15.79-6.19,20.16C232.1,310.86,224.12,307.76,220.17,300.35z M242.16,288.64c-2.95-5.54-8.59-7.8-13.98-4.93
		c-5.39,2.87-6.67,8.81-3.72,14.35c2.97,5.57,8.59,7.8,13.98,4.93C243.83,300.13,245.13,294.22,242.16,288.64z"/>
	<path class="st0" d="M211.94,318.55l-11.45-20.86l-0.08,0.02l-3.63,23.72l-4.44,0.83l-12.05-20.79l-0.08,0.02l-3.09,23.58
		l-4.91,0.92l4.66-30.04l4.57-0.86l12.03,20.45l0.08-0.02l3.74-23.4l4.61-0.86l15.13,26.33L211.94,318.55z"/>
	<path class="st0" d="M143.63,323.1l3.36-28.21l4.83,0.58l-3.36,28.21L143.63,323.1z"/>
	<path class="st0" d="M107.25,314.35l1.13-3.89l10.9,3.17l6.8-23.39l4.67,1.36l-6.8,23.39l10.9,3.17l-1.13,3.89L107.25,314.35z"/>
	<path class="st0" d="M82.6,302.7l7.77-22.49l-0.07-0.05l-20.02,13.23l-3.6-2.74L74,267.78l-0.07-0.05l-19.55,13.53l-3.97-3.02
		l25.39-16.7l3.7,2.81l-7.08,22.64l0.07,0.05l19.85-12.93l3.74,2.84l-9.36,28.88L82.6,302.7z"/>
	<path class="st0" d="M38.01,237.21c6.87-4.91,15.36-4.11,20.77,3.46c5.41,7.57,3.44,15.89-3.43,20.8s-15.39,4.07-20.79-3.49
		C29.15,250.41,31.17,242.09,38.01,237.21z M52.49,257.48c5.1-3.64,6.6-9.54,3.06-14.5c-3.55-4.96-9.61-5.45-14.71-1.81
		c-5.14,3.67-6.6,9.54-3.06,14.5C41.33,260.63,47.35,261.15,52.49,257.48z"/>
	<path class="st0" d="M45.43,219.31l1.75,4.49l-26.46,10.34l-5.4-13.82c-2.62-6.71-0.94-11.08,4.11-13.05
		c4.29-1.68,8.01-0.01,10.57,3.97l7.45-12.34l2.02,5.16l-7.27,11.86l2.9,7.43L45.43,219.31z M31.6,224.71l-3.2-8.18
		c-1.65-4.21-3.99-6-7.13-4.77c-2.94,1.15-3.79,3.54-2.11,7.83l3.38,8.66L31.6,224.71z"/>
	<path class="st0" d="M22.61,186.43l5.57,4.18l7.82-1.08l0.66,4.82l-28.14,3.88l-0.66-4.82l14.96-2.07L5.78,178.38l-0.82-5.96
		l14.14,11.05c3.63-3.95,13.96-15.23,13.96-15.23l0.81,5.87C33.87,174.12,25.67,183.08,22.61,186.43z"/>
	<path class="st0" d="M15.33,139.01l0.19,4.73c-2.64,0.29-5.62,2.09-6.09,7.65c-0.38,4.42,1.18,7.25,3.6,7.46
		c2.72,0.23,3.45-1.8,5.17-8.42c2.11-8.17,4.29-11.15,9.22-10.72c5.52,0.47,8.14,5.88,7.52,13.14c-0.78,9.09-5.01,12.54-10.41,12.63
		l-0.19-4.77c3.87-0.22,6.18-2.64,6.66-8.29c0.37-4.38-0.9-7.52-3.66-7.76c-2.85-0.24-3.7,1.69-5.48,8.48
		c-2.01,7.92-4.04,11.13-8.84,10.71c-5.06-0.43-8.16-5.66-7.54-12.93C6.23,142.38,10.64,139.38,15.33,139.01z"/>
</g>
</svg>
