<?xml version="1.0" encoding="utf-8"?>
<!-- Generator: Adobe Illustrator 24.2.1, SVG Export Plug-In . SVG Version: 6.00 Build 0)  -->
<svg version="1.1" id="Layer_1" xmlns="http://www.w3.org/2000/svg" xmlns:xlink="http://www.w3.org/1999/xlink" x="0px" y="0px"
	 viewBox="0 0 90 70" style="enable-background:new 0 0 90 70;" xml:space="preserve">
<style type="text/css">
	.st0{fill:#231F20;}
	.st1{fill:#7CC644;}
	.st2{fill:#FFFFFF;}
</style>
<path class="st0" d="M45.11,68.87l-0.34-0.12C17.09,58.82,16.3,37.26,16.3,37.04V8.41l28.82-6.85l28.82,6.85v28.61
	c0,0.24-0.79,21.8-28.48,31.72L45.11,68.87z M18.3,9.99v27.03c0,0.18,0.81,20.23,26.82,29.72c13.55-4.94,20.11-12.71,23.24-18.39
	c3.41-6.2,3.58-11.31,3.58-11.36v-27L45.11,3.62L18.3,9.99z"/>
<path class="st1" d="M45.11,60.48C36.6,57,30.5,51.95,26.95,45.46c-2.46-4.51-2.79-8.21-2.81-8.56V14.61l20.98-4.99l20.98,4.99
	v22.25C66.01,38.16,64.64,52.47,45.11,60.48z"/>
<polygon class="st2" points="41.12,45.06 32.92,37.53 34.27,36.06 40.96,42.2 56.58,24.28 58.09,25.59 "/>
</svg>
