<?xml version="1.0" encoding="utf-8"?>
<!-- Generator: Adobe Illustrator 24.2.1, SVG Export Plug-In . SVG Version: 6.00 Build 0)  -->
<svg version="1.1" id="Layer_1" xmlns="http://www.w3.org/2000/svg" xmlns:xlink="http://www.w3.org/1999/xlink" x="0px" y="0px"
	 viewBox="0 0 90 70" style="enable-background:new 0 0 90 70;" xml:space="preserve">
<style type="text/css">
	.st0{fill:#7CC644;}
	.st1{fill:#231F20;}
</style>
<path class="st0" d="M27.67,51.38h58.87c0,0,0.3-10.89-8.5-13.87c-4.98-1.69-7.52-1.8-10.58-2.8c0,0-10.38,6.76-20.28,7.01
	s-17.04-3.35-25.3-7.34c-6.21-3-17.55-2.53-17.55-2.53c-0.09,1.47,0.1,3.01,0.09,4.59C4.42,36.45,23.45,35.88,27.67,51.38z"/>
<path class="st1" d="M86.99,52.58H4.89v-2h80.1c-0.16-2.62-1.2-9.68-7.8-11.92c-2.81-0.95-4.84-1.4-6.62-1.79
	c-3.86-0.84-6.65-1.45-13.45-6.09c-9.17-6.25-15.18-10.22-15.88-10.68c-0.54-0.25-3.32-1.6-4.79-4.04
	c-1.32-2.19-3.81-3.84-4.93-3.26c-1.49,0.77-3.66,4.1-2.33,11.74l-1.97,0.34c-1.84-10.58,2.5-13.4,3.39-13.86
	c2.56-1.31,6.03,1.48,7.56,4c1.26,2.09,3.93,3.26,3.96,3.27l0.16,0.08c0.06,0.04,6.23,4.11,15.97,10.75
	c6.48,4.42,9.11,4.99,12.75,5.79c1.84,0.4,3.92,0.86,6.84,1.85c9.39,3.18,9.18,14.73,9.18,14.84L86.99,52.58z"/>
<path class="st1" d="M3.9,52.05C1.58,39.12,2.67,21.9,6.05,17.93c0.71-0.83,1.43-0.98,1.91-0.98c3.75,0.08,5.87,6.63,6.47,8.76
	c1.7,0.43,7.13,1.54,10.77-0.5c4.78-2.69,7.25-3.67,7.36-3.71l0.73,1.86c-0.02,0.01-2.47,0.99-7.11,3.59
	c-5.09,2.86-12.55,0.63-12.86,0.53l-0.54-0.17l-0.14-0.55c-0.62-2.53-2.6-7.77-4.72-7.81c0,0,0,0,0,0c-0.02,0-0.15,0.05-0.35,0.28
	c-2.46,2.88-4.2,18.57-1.7,32.47L3.9,52.05z"/>
<path class="st1" d="M86.61,59.74H3.26l-0.15-0.82c-0.03-0.19-0.83-4.58,0.89-7.81l1.77,0.94c-1,1.88-0.92,4.41-0.8,5.69h80.39
	c0.42-1.06,1.13-3.53-0.2-5.62l1.69-1.07c2.38,3.73,0.13,7.99,0.04,8.17L86.61,59.74z"/>
<rect x="42.08" y="24.62" transform="matrix(0.6613 -0.7502 0.7502 0.6613 -3.8206 42.7723)" class="st1" width="6.75" height="2"/>
<rect x="46.54" y="28.1" transform="matrix(0.6613 -0.7502 0.7502 0.6613 -4.9228 47.3011)" class="st1" width="6.75" height="2"/>
<rect x="51.49" y="31.06" transform="matrix(0.6613 -0.7502 0.7502 0.6613 -5.463 52.0156)" class="st1" width="6.75" height="2"/>
<path class="st1" d="M26.18,51.84c-1.65-6.07-5.86-10.3-12.5-12.58c-5.06-1.73-9.7-1.62-9.75-1.62l-0.06-2
	c0.2-0.01,19.87-0.41,24.24,15.67L26.18,51.84z"/>
</svg>
