<?xml version="1.0" encoding="utf-8"?>
<!-- Generator: Adobe Illustrator 24.2.1, SVG Export Plug-In . SVG Version: 6.00 Build 0)  -->
<svg version="1.1" id="Layer_1" xmlns="http://www.w3.org/2000/svg" xmlns:xlink="http://www.w3.org/1999/xlink" x="0px" y="0px"
	 viewBox="0 0 90 70" style="enable-background:new 0 0 90 70;" xml:space="preserve">
<style type="text/css">
	.st0{fill:#231F20;}
	.st1{fill:#7CC644;}
	.st2{fill:#FFFFFF;}
</style>
<path class="st0" d="M43.8,68.38c-18.29,0-33.17-14.88-33.17-33.17S25.51,2.04,43.8,2.04c6.2,0,12.24,1.72,17.48,4.98l-1.05,1.7
	C55.3,5.66,49.62,4.04,43.8,4.04c-17.19,0-31.17,13.98-31.17,31.17S26.61,66.38,43.8,66.38S74.97,52.4,74.97,35.21
	c0-3.11-0.46-6.17-1.35-9.11l1.91-0.58c0.96,3.13,1.44,6.39,1.44,9.69C76.97,53.5,62.09,68.38,43.8,68.38z"/>
<g>
	<path class="st0" d="M43.22,36.8c-4.73,0-8.57-3.85-8.57-8.58s3.85-8.57,8.57-8.57c4.73,0,8.58,3.85,8.58,8.57
		S47.95,36.8,43.22,36.8z M43.22,21.65c-3.63,0-6.57,2.95-6.57,6.57c0,3.63,2.95,6.57,6.57,6.57c3.63,0,6.58-2.95,6.58-6.57
		C49.79,24.6,46.84,21.65,43.22,21.65z"/>
	<path class="st0" d="M57.62,49.78h-2v-3.5c0-3.57-4.66-4.55-6.18-4.77l-5.64,6.27l-5.64-6.27c-1.52,0.22-6.18,1.2-6.18,4.77v3.5h-2
		v-3.5c0-4.88,5.56-6.6,8.5-6.82l0.49-0.04l4.83,5.37l4.83-5.37l0.49,0.04c2.94,0.23,8.5,1.94,8.5,6.82V49.78z"/>
</g>
<path class="st1" d="M68.8,30.6c-4.38-1.79-7.53-4.39-9.35-7.74c-1.27-2.32-1.44-4.23-1.45-4.41V6.98l10.8-2.57l10.8,2.57v11.46
	C79.55,19.1,78.85,26.47,68.8,30.6z"/>
<polygon class="st2" points="66.78,23.35 62.19,19.14 63.54,17.67 66.62,20.49 74.33,11.64 75.84,12.95 "/>
</svg>
